# xmcd CD database file
#
# Track frame offsets:
#	150
#	12882
#	27632
#	36326
#	48813
#	60969
#	75154
#	88428
#	98943
#	112945
#	132428
#	146204
#	159685
#	173103
#	182032
#	195788
#
# Disc length: 2755 seconds
#
# Revision: 1
# Processed by: cddbd v1.5.2PL0 Copyright (c) Steve Scherf et al.
# Submitted via: CDex 1.51
#
DISCID=cd0ac110
DTITLE=Charles Douglas - Statecraft
DYEAR=2004
DGENRE=Rock
TTITLE0=Free At Last
TTITLE1=Crackerjack
TTITLE2=Ancient Mysteries
TTITLE3=Blues For Catalina
TTITLE4=Beneath the Flowers
TTITLE5=The Island
TTITLE6=Splitting the Atom
TTITLE7=I Don't Care
TTITLE8=Close To Me
TTITLE9=Revelation in Chapel Hill
TTITLE10=The Day of Creation
TTITLE11=Statecraft
TTITLE12=Take It Off
TTITLE13=Game Over
TTITLE14=Chan
TTITLE15=The Rabbit Never Gets the Carrot, Part Two
EXTD=YEAR: 2004
EXTT0=
EXTT1=
EXTT2=
EXTT3=
EXTT4=
EXTT5=
EXTT6=
EXTT7=
EXTT8=
EXTT9=
EXTT10=
EXTT11=
EXTT12=
EXTT13=
EXTT14=
EXTT15=
PLAYORDER=
